<svg width="500" height="500" viewBox="0 0 500 500" fill="none" xmlns="http://www.w3.org/2000/svg">
<path d="M102.36 156.555C183.9 76.7213 316.101 76.7213 397.64 156.555L407.454 166.163C411.531 170.155 411.531 176.627 407.454 180.618L373.884 213.486C371.845 215.482 368.54 215.482 366.502 213.486L352.998 200.264C296.114 144.57 203.887 144.57 147.003 200.264L132.541 214.423C130.502 216.419 127.197 216.419 125.159 214.423L91.5893 181.556C87.5123 177.564 87.5123 171.092 91.5893 167.101L102.36 156.555ZM467.065 224.528L496.942 253.781C501.019 257.772 501.019 264.244 496.942 268.236L362.225 400.138C358.148 404.129 351.538 404.129 347.461 400.138C347.461 400.138 347.461 400.138 347.461 400.138L251.846 306.523C250.827 305.525 249.175 305.525 248.155 306.523C248.155 306.523 248.155 306.523 248.155 306.523L152.543 400.138C148.466 404.129 141.856 404.129 137.779 400.138C137.779 400.138 137.779 400.138 137.779 400.138L3.05772 268.234C-1.01924 264.242 -1.01924 257.771 3.05772 253.779L32.9348 224.527C37.0117 220.535 43.6218 220.535 47.6988 224.527L143.315 318.143C144.334 319.14 145.986 319.14 147.006 318.143C147.006 318.143 147.006 318.142 147.006 318.142L242.616 224.527C246.693 220.535 253.303 220.535 257.381 224.526C257.381 224.526 257.381 224.526 257.381 224.527L352.996 318.142C354.015 319.14 355.668 319.14 356.687 318.142L452.301 224.528C456.378 220.537 462.988 220.537 467.065 224.528Z" fill="#3B99FC"/>
</svg>
